<svg id="Layer_1" data-name="Layer 1" xmlns="http://www.w3.org/2000/svg" viewBox="0 0 173.05 139.89"><defs><style>.cls-1{fill:#02028d;}</style></defs><title>mapmark</title><path class="cls-1" d="M9,142.55c5.4-10.56,10.83-21.11,16.18-31.69,4.9-9.7,9.72-19.45,14.59-29.16.5-1,1.11-2,2-3.53L63.09,99.91c9.67-6.43,19.21-12.62,28.55-19.1,2.81-2,4.73-2.2,7.68-.11,8.44,6,17.14,11.66,25.85,17.28,1.3.83,3.21.72,5.2.49,1.82,3.34,4.95,6.25,4.36,11.59-.54,5,1.71,10.24,2.74,15.38l5.08,25.38,25-12.46c-2.63-5.24-5-10.43-7.8-15.37-1.78-3.15-1.77-5.85.14-8.84,1.36-2.13,2.41-4.46,3.91-7.28,4.49,9,8.7,17.49,13,26,1.66,3.28,3.47,6.48,5.22,9.72v.77c-13.17,6.51-26.38,12.93-39.47,19.59-2.65,1.35-4.66,1.51-7.37.11q-18.42-9.51-37.1-18.51a6.72,6.72,0,0,0-5.17,0q-18.68,9-37.1,18.51c-2.71,1.4-4.72,1.24-7.37-.11C35.38,156.25,22.17,149.83,9,143.32ZM59.76,149c10.05-5,19.33-9.53,28.47-14.32,1.08-.57,1.94-2.58,2-3.93.18-8.58.09-17.16.09-25.74V94.71c-7.82,5.22-14.91,9.93-22,14.72a3.39,3.39,0,0,0-.91,2C64.91,123.65,62.42,135.89,59.76,149Zm41-54.23c0,13.07,0,25.19.07,37.32a3.19,3.19,0,0,0,1.45,2.36c9.4,4.8,18.86,9.5,29,14.54-2.65-13.15-5.16-25.64-7.73-38.12a3.12,3.12,0,0,0-1.26-1.77C115.38,104.42,108.46,99.85,100.77,94.73Zm-52.29,56.1c2.8-13.85,5.45-27,8.06-40.09a2.93,2.93,0,0,0-.23-2.18c-3.81-4-7.73-7.9-11.91-12.13-7.19,14.38-14,28-20.94,41.91Z" transform="translate(-9 -24.11)"/><path class="cls-1" d="M147.57,110.34c-8.24-16.16-16.45-31.64-24.07-47.41-5.1-10.54-3.68-20.91,4.17-29.65,7.71-8.58,17.62-11.26,28.63-7.53,11.19,3.79,17.37,12.16,18.23,23.77a27.46,27.46,0,0,1-2.68,13.31c-7.35,15.32-15.31,30.36-23,45.5C148.53,108.87,148.16,109.38,147.57,110.34ZM131.51,50.71a16.23,16.23,0,0,0,32.44,1,16.23,16.23,0,1,0-32.44-1Z" transform="translate(-9 -24.11)"/></svg>